<?xml version="1.0" standalone="no"?>
<!DOCTYPE svg PUBLIC "-//W3C//DTD SVG 20010904//EN"
 "http://www.w3.org/TR/2001/REC-SVG-20010904/DTD/svg10.dtd">
<svg version="1.0" xmlns="http://www.w3.org/2000/svg"
 width="225.000000pt" height="225.000000pt" viewBox="0 0 225.000000 225.000000"
 preserveAspectRatio="xMidYMid meet">
<metadata>
Created by potrace 1.16, written by Peter Selinger 2001-2019
</metadata>
<g transform="translate(0.000000,225.000000) scale(0.100000,-0.100000)"
fill="#000000" stroke="none">
<path d="M1001 2234 c-255 -55 -447 -270 -470 -527 l-6 -72 -125 -3 -125 -3
-69 -767 c-37 -422 -70 -788 -73 -814 l-6 -48 998 0 998 0 -6 47 c-3 27 -36
393 -73 815 l-69 767 -125 3 -125 3 -6 72 c-19 203 -142 384 -323 474 -133 65
-261 83 -395 53z m230 -68 c91 -20 182 -68 251 -133 48 -46 118 -137 118 -154
0 -2 -33 27 -73 66 -233 224 -579 222 -809 -5 -68 -68 -74 -72 -57 -38 11 21
49 69 84 107 131 138 306 195 486 157z m14 -151 c86 -23 172 -72 236 -136 57
-57 113 -154 125 -216 l7 -33 -487 0 -486 0 0 21 c0 12 16 55 36 96 101 210
346 326 569 268z"/>
</g>
</svg>
